<svg width="13" height="13" viewBox="0 0 13 13" fill="none" xmlns="http://www.w3.org/2000/svg">
<path d="M0.721791 1.97787C0.365225 1.62131 0.365225 1.0432 0.721791 0.686635C1.07836 0.330069 1.65646 0.330069 2.01303 0.686635L12.104 10.7777C12.4606 11.1342 12.4606 11.7123 12.104 12.0689C11.7475 12.4255 11.1694 12.4255 10.8128 12.0689L0.721791 1.97787Z" fill="#717E8A"/>
<path d="M0.645619 10.82C0.289053 11.1765 0.289053 11.7547 0.645619 12.1112C1.00219 12.4678 1.58029 12.4678 1.93686 12.1112L12.1108 1.9373C12.4673 1.58074 12.4673 1.00263 12.1108 0.646065C11.7542 0.289498 11.1761 0.289499 10.8195 0.646065L0.645619 10.82Z" fill="#717E8A"/>
</svg>
